<svg xmlns="http://www.w3.org/2000/svg" enable-background="new 0 0 48 48" viewBox="0 0 48 48" id="gamepad"><path d="M44.707,14.909c-0.467-2.088-2.166-3.591-4.238-3.855l-2.762-2.762C37.52,8.105,37.265,8,37,8h-6
	c-0.265,0-0.52,0.105-0.707,0.293L27.586,11h-7.172l-2.707-2.707C17.52,8.105,17.265,8,17,8h-6c-0.265,0-0.52,0.105-0.707,0.293
	l-2.762,2.762c-2.072,0.263-3.771,1.766-4.238,3.855C2.07,20.382,0,30.561,0,34c0,4.835,3.014,7,6,7c5.079,0,7.312-6.044,8.046-8.03
	c0.436-1.178,1.567-1.97,2.816-1.97h14.276c1.249,0,2.38,0.792,2.816,1.97C34.688,34.956,36.921,41,42,41c2.986,0,6-2.165,6-7
	C48,30.561,45.93,20.382,44.707,14.909z M31.414,10h5.172l1,1h-7.172L31.414,10z M11.414,10h5.172l1,1h-7.172L11.414,10z M18,29
	c-1.103,0-2-0.897-2-2s0.897-2,2-2s2,0.897,2,2S19.103,29,18,29z M28,27c0-1.103,0.897-2,2-2s2,0.897,2,2s-0.897,2-2,2
	S28,28.103,28,27z M42,39c-2.48,0-4.498-2.199-6.17-6.724c-0.476-1.289-1.46-2.29-2.667-2.831C33.687,28.769,34,27.92,34,27
	c0-2.206-1.794-4-4-4s-4,1.794-4,4c0,0.729,0.202,1.411,0.544,2h-5.106C21.784,28.409,22,27.733,22,27c0-2.206-1.794-4-4-4
	s-4,1.794-4,4c0,0.921,0.318,1.766,0.843,2.443c-1.21,0.54-2.196,1.542-2.673,2.833C10.498,36.801,8.48,39,6,39
	c-2.505,0-4-1.869-4-5c0-2.841,1.682-11.662,3.246-18.654C5.554,13.965,6.758,13,8.173,13h31.653c1.415,0,2.619,0.965,2.928,2.346
	C44.318,22.338,46,31.159,46,34C46,37.131,44.505,39,42,39z M22,19c0,0.552-0.448,1-1,1h-1c-0.552,0-1-0.448-1-1s0.448-1,1-1h1
	C21.552,18,22,18.448,22,19z M29,19c0,0.552-0.448,1-1,1h-1c-0.552,0-1-0.448-1-1s0.448-1,1-1h1C28.552,18,29,18.448,29,19z M35,19
	c0,0.552-0.448,1-1,1c-0.552,0-1-0.448-1-1s0.448-1,1-1C34.552,18,35,18.448,35,19z M41,19c0,0.552-0.448,1-1,1
	c-0.552,0-1-0.448-1-1s0.448-1,1-1C40.552,18,41,18.448,41,19z M38,16c0,0.552-0.448,1-1,1c-0.552,0-1-0.448-1-1s0.448-1,1-1
	C37.552,15,38,15.448,38,16z M38,22c0,0.552-0.448,1-1,1c-0.552,0-1-0.448-1-1s0.448-1,1-1C37.552,21,38,21.448,38,22z M15,19
	c0,0.552-0.448,1-1,1h-2v2c0,0.552-0.448,1-1,1s-1-0.448-1-1v-2H8c-0.552,0-1-0.448-1-1s0.448-1,1-1h2v-2c0-0.552,0.448-1,1-1
	s1,0.448,1,1v2h2C14.552,18,15,18.448,15,19z"></path></svg>