<svg xmlns="http://www.w3.org/2000/svg" width="100" height="100" viewBox="0 0 26.458 26.458" id="television"><path style="line-height:normal;font-variant-ligatures:normal;font-variant-position:normal;font-variant-caps:normal;font-variant-numeric:normal;font-variant-alternates:normal;font-feature-settings:normal;text-indent:0;text-align:start;text-decoration-line:none;text-decoration-style:solid;text-decoration-color:#000;text-transform:none;text-orientation:mixed;shape-padding:0;isolation:auto;mix-blend-mode:normal" d="m10.811 273.394-.644.474 2.707 3.684h-8.81a1.66 1.66 0 0 0-1.655 1.654v12.407c0 .796.57 1.465 1.32 1.62a.688.688 0 0 0-.038.226.688.688 0 0 0 .688.689.688.688 0 0 0 .688-.689.688.688 0 0 0-.027-.192h16.378a.688.688 0 0 0-.028.192.688.688 0 0 0 .689.689.688.688 0 0 0 .688-.689.688.688 0 0 0-.04-.226 1.661 1.661 0 0 0 1.322-1.62v-12.407a1.66 1.66 0 0 0-1.655-1.654h-8.81l2.706-3.684-.644-.474-2.417 3.29zm-6.748 4.958h18.331c.48 0 .855.374.855.854v12.407c0 .48-.374.854-.855.854H4.064a.844.844 0 0 1-.856-.854v-12.407c0-.48.375-.854.855-.854zm2.677 1.877a1.66 1.66 0 0 0-1.654 1.654v7.053c0 .91.745 1.654 1.654 1.654h7.052a1.66 1.66 0 0 0 1.655-1.654v-7.053a1.66 1.66 0 0 0-1.655-1.654zm11.479 0v.8h2.649v-.8zm-11.479.8h7.052c.48 0 .855.374.855.854v7.053c0 .48-.374.854-.855.854H6.74a.843.843 0 0 1-.854-.854v-7.053c0-.48.374-.854.854-.854zm11.479 1.178v.8h2.649v-.8zm0 1.978v.8h2.649v-.8zm1.325 3.773c-.722 0-1.317.593-1.317 1.316 0 .722.595 1.316 1.317 1.316s1.315-.594 1.315-1.316c0-.723-.593-1.316-1.315-1.316zm0 .799a.51.51 0 0 1 .515.517.51.51 0 0 1-.515.516.51.51 0 0 1-.517-.516.51.51 0 0 1 .517-.517z" color="#000" font-family="sans-serif" font-weight="400" overflow="visible" transform="translate(0 -270.542)"></path></svg>