<svg xmlns="http://www.w3.org/2000/svg" viewBox="0 0 64 64" id="vlog"><path d="M34.12 31.38l-1.2-.69a6.24 6.24 0 0 0 .08-1 6.47 6.47 0 1 0-2.45 5.07l1.21.69a2.26 2.26 0 0 0 1.18.33 2.55 2.55 0 0 0 .61-.08A2.35 2.35 0 0 0 35 34.62 2.38 2.38 0 0 0 34.12 31.38zm-7.57 2.81A4.47 4.47 0 1 1 31 29.72 4.47 4.47 0 0 1 26.55 34.19zm6.7-.57a.35.35 0 0 1-.49.13l-.83-.47a5.89 5.89 0 0 0 .37-.64l.82.47A.38.38 0 0 1 33.25 33.62zM32.91 16.12a1 1 0 0 0 1-1V8.74a1 1 0 0 0-1-1H20.18a1 1 0 0 0-1 1v6.38a1 1 0 0 0 1 1zM21.18 9.74H31.91v4.38H21.18z"></path><rect width="5.45" height="2" x="14.73" y="23.25"></rect><rect width="2.73" height="2" x="14.73" y="25.98"></rect><path d="M26.55 26a3.74 3.74 0 1 0 3.72 3.74A3.74 3.74 0 0 0 26.55 26zm0 5.48a1.74 1.74 0 1 1 1.72-1.74A1.73 1.73 0 0 1 26.55 31.46zM37.45 23.25H33.82a1 1 0 0 0-1 1V27a1 1 0 0 0 1 1h3.63a1 1 0 0 0 1-1V24.25A1 1 0 0 0 37.45 23.25zm-1 2.73H34.82v-.73h1.63z"></path><path d="M52,29.18H48.45V26.07a1,1,0,0,0-1-1H42.09V22.42a2.82,2.82,0,0,0-2.82-2.82H34v-.74h1.63a1,1,0,0,0,1-1V6a1,1,0,0,0-1-1H17.45a1,1,0,0,0-1,1V17.86a1,1,0,0,0,1,1h1.63v.74H13.82A2.82,2.82,0,0,0,11,22.42V37a2.82,2.82,0,0,0,2.82,2.82h9v2.65a1,1,0,0,0,1,1h5.45a1,1,0,0,0,1-1V39.84h9A2.82,2.82,0,0,0,42.09,37V35.28h5.36a1,1,0,0,0,1-1v-3.1H51v6.39L42.44,47.88H33.91v-.83a1,1,0,0,0-1-1H19.27a1,1,0,0,0-1,1V50.7a1,1,0,0,0,1,1H21V58a1,1,0,0,0,1,1h8.18a1,1,0,0,0,1-1V51.7h1.73a1,1,0,0,0,1-1v-.82h9a1,1,0,0,0,.77-.36l9.09-11a1,1,0,0,0,.23-.64V30.18A1,1,0,0,0,52,29.18ZM18.45,7H34.64v9.86H18.45Zm2.63,11.86H32v.74H21.08Zm7.19,22.63H24.82V39.84h3.45ZM40.09,37a.82.82,0,0,1-.82.82H13.82A.82.82,0,0,1,13,37V22.42a.82.82,0,0,1,.82-.82H39.27a.82.82,0,0,1,.82.82V37Zm2-10h.73v6.21h-.73Zm4.36,6.21H44.82V27.07h1.63ZM27.36,48.05V49.7H24.82V48.05Zm-7.09,0h2.55V49.7H20.27Zm8.91,5.3H26v2h3.18V57H23V51.7h6.18Zm2.73-3.65H29.36V48.05h2.55Z"></path></svg>